<svg xmlns="http://www.w3.org/2000/svg">
  <symbol id="chat" viewBox="0 0 24 24"><path d="M21 12a8 8 0 0 1-8 8H7l-4 2 1.4-4.2A9 9 0 1 1 21 12Z"/><path d="M8 12h.01M12 12h.01M16 12h.01"/></symbol>
  <symbol id="whatsapp" viewBox="0 0 24 24"><path d="M20.5 11.8a8.5 8.5 0 0 1-12.6 7.4L3 20.5l1.3-4.7A8.5 8.5 0 1 1 20.5 11.8Z"/><path d="M8.4 7.7c.3-.5.7-.5 1-.1l1 1.8c.2.4.1.7-.2 1l-.6.6c.8 1.6 1.8 2.5 3.4 3.3l.7-.8c.3-.3.6-.4 1-.2l1.8.9c.5.2.5.7.3 1.1-.6 1.2-1.8 1.8-3 1.5-3.7-.9-6.6-3.8-7.4-7.4-.3-.7.5-1.4 2-1.7Z"/></symbol>
  <symbol id="bolt" viewBox="0 0 24 24"><path d="m13 2-7 12h6l-1 8 7-12h-6z"/></symbol>
  <symbol id="headset" viewBox="0 0 24 24"><path d="M4 14v-2a8 8 0 0 1 16 0v2"/><path d="M4 14a2 2 0 0 1 2-2h1v7H6a2 2 0 0 1-2-2Zm16 0a2 2 0 0 0-2-2h-1v7h1a2 2 0 0 0 2-2Zm0 3v1a3 3 0 0 1-3 3h-3"/></symbol>
  <symbol id="inbox" viewBox="0 0 24 24"><path d="M4 4h16l2 9v7H2v-7z"/><path d="M2 13h6l2 3h4l2-3h6"/></symbol>
  <symbol id="users" viewBox="0 0 24 24"><path d="M16 21v-2a4 4 0 0 0-4-4H6a4 4 0 0 0-4 4v2"/><circle cx="9" cy="7" r="4"/><path d="M22 21v-2a4 4 0 0 0-3-3.9M16 3.1a4 4 0 0 1 0 7.8"/></symbol>
  <symbol id="robot" viewBox="0 0 24 24"><rect x="4" y="7" width="16" height="12" rx="4"/><path d="M12 3v4M8 12h.01M16 12h.01M9 16h6"/></symbol>
  <symbol id="campaign" viewBox="0 0 24 24"><path d="m3 11 15-6v14L3 13zM7 14l2 6"/></symbol>
  <symbol id="chart" viewBox="0 0 24 24"><path d="M4 20V10M10 20V4M16 20v-7M22 20V7"/></symbol>
  <symbol id="settings" viewBox="0 0 24 24"><circle cx="12" cy="12" r="3"/><path d="M19.4 15a2 2 0 0 0 .4 2.2l.1.1-2.6 2.6-.1-.1a2 2 0 0 0-2.2-.4 2 2 0 0 0-1.2 1.8V21h-3.6v-.2A2 2 0 0 0 9 19a2 2 0 0 0-2.2.4l-.1.1-2.6-2.6.1-.1A2 2 0 0 0 4.6 15a2 2 0 0 0-1.8-1.2H2v-3.6h.8A2 2 0 0 0 4.6 9a2 2 0 0 0-.4-2.2l-.1-.1 2.6-2.6.1.1A2 2 0 0 0 9 4.6a2 2 0 0 0 1.2-1.8V2h3.6v.8A2 2 0 0 0 15 4.6a2 2 0 0 0 2.2-.4l.1-.1 2.6 2.6-.1.1A2 2 0 0 0 19.4 9a2 2 0 0 0 1.8 1.2h.8v3.6h-.8A2 2 0 0 0 19.4 15Z"/></symbol>
  <symbol id="target" viewBox="0 0 24 24"><circle cx="11" cy="13" r="8"/><circle cx="11" cy="13" r="4"/><path d="m14 10 7-7M17 3h4v4"/></symbol>
  <symbol id="clock" viewBox="0 0 24 24"><circle cx="12" cy="12" r="9"/><path d="M12 5v7l4 2"/></symbol>
  <symbol id="document" viewBox="0 0 24 24"><path d="M6 2h8l4 4v16H6z"/><path d="M14 2v5h5M9 12h6M9 16h4"/></symbol>
  <symbol id="smile" viewBox="0 0 24 24"><circle cx="12" cy="12" r="9"/><path d="M8 14s1.5 2 4 2 4-2 4-2M9 9h.01M15 9h.01"/></symbol>
  <symbol id="growth" viewBox="0 0 24 24"><path d="M4 20v-5M9 20v-9M14 20V8M19 20V3M3 12l6-5 4 2 7-7"/></symbol>
  <symbol id="calendar" viewBox="0 0 24 24"><rect x="3" y="5" width="18" height="16" rx="2"/><path d="M7 2v6M17 2v6M3 10h18M8 14h.01M12 14h.01M16 14h.01M8 17h.01M12 17h.01"/></symbol>
  <symbol id="barcode" viewBox="0 0 24 24"><path d="M3 5v14M6 5v14M10 5v14M14 5v14M17 5v14M21 5v14"/></symbol>
</svg>
