<svg xmlns="http://www.w3.org/2000/svg" viewBox="0 0 980 620">
  <path d="M0 478c125-36 182-114 244-202 39-55 81-96 132-78 54 20 52 79 41 140l-23 129c-9 51-45 92-94 108L0 620z" fill="#f5b58c"/>
  <path d="M0 520c95-20 180-91 253-182l80 146c-58 66-130 111-225 136H0z" fill="#09142f"/>
  <g transform="rotate(8 565 300)">
    <rect x="390" y="35" width="330" height="530" rx="48" fill="#09142f"/>
    <rect x="407" y="53" width="296" height="494" rx="34" fill="#ffffff"/>
    <path d="M407 92a39 39 0 0 1 39-39h218a39 39 0 0 1 39 39v75H407z" fill="#33a50e"/>
    <circle cx="457" cy="112" r="24" fill="#fff"/><text x="457" y="120" text-anchor="middle" font-family="Arial" font-size="20" font-weight="700" fill="#33a50e">GT</text>
    <rect x="432" y="196" width="210" height="70" rx="16" fill="#eaf8e6"/>
    <rect x="482" y="292" width="192" height="78" rx="16" fill="#d8f2d0"/>
    <rect x="432" y="399" width="224" height="84" rx="16" fill="#eaf8e6"/>
    <path d="M454 218h125M454 239h90M505 319h130M505 341h95M454 425h145M454 447h110" stroke="#2792ae" stroke-width="9" stroke-linecap="round"/>
  </g>
  <circle cx="770" cy="116" r="40" fill="#2792ae"/><path d="m749 116 14 14 29-34" fill="none" stroke="#fff" stroke-width="9"/>
  <rect x="760" y="426" width="150" height="115" rx="18" fill="#ffffff" stroke="#33a50e" stroke-width="5"/>
  <path d="M800 460h68v50h-68z" fill="#eaf8e6"/><path d="M814 477h40M814 493h28" stroke="#33a50e" stroke-width="7"/>
</svg>
