<svg xmlns="http://www.w3.org/2000/svg" viewBox="0 0 520 760">
  <rect x="85" y="18" width="350" height="724" rx="58" fill="#09142f"/>
  <rect x="102" y="38" width="316" height="684" rx="43" fill="#ffffff"/>
  <path d="M102 81a43 43 0 0 1 43-43h230a43 43 0 0 1 43 43v92H102z" fill="#33a50e"/>
  <rect x="205" y="49" width="110" height="25" rx="13" fill="#09142f"/>
  <text x="134" y="123" font-family="Arial" font-size="20" font-weight="700" fill="#ffffff">Escritório Almeida</text>
  <circle cx="260" cy="265" r="72" fill="#33a50e"/>
  <path d="m224 264 23 23 50-58" fill="none" stroke="#ffffff" stroke-width="14" stroke-linecap="round" stroke-linejoin="round"/>
  <text x="260" y="372" text-anchor="middle" font-family="Arial" font-size="26" font-weight="700" fill="#09142f">Atendimento concluído</text>
  <g font-family="Arial">
    <rect x="127" y="410" width="266" height="72" rx="16" fill="#eaf8e6"/>
    <circle cx="159" cy="446" r="18" fill="#33a50e"/><path d="m151 446 6 6 11-13" fill="none" stroke="#fff" stroke-width="4"/>
    <text x="190" y="442" font-size="16" font-weight="700" fill="#09142f">Documento enviado</text>
    <text x="190" y="462" font-size="13" fill="#2792ae">Informe de rendimentos</text>
    <rect x="127" y="500" width="266" height="72" rx="16" fill="#eaf8e6"/>
    <circle cx="159" cy="536" r="18" fill="#33a50e"/><path d="m151 536 6 6 11-13" fill="none" stroke="#fff" stroke-width="4"/>
    <text x="190" y="532" font-size="16" font-weight="700" fill="#09142f">Cliente notificado</text>
    <text x="190" y="552" font-size="13" fill="#2792ae">Resposta enviada</text>
    <rect x="127" y="590" width="266" height="72" rx="16" fill="#eaf8e6"/>
    <circle cx="159" cy="626" r="18" fill="#33a50e"/><path d="m151 626 6 6 11-13" fill="none" stroke="#fff" stroke-width="4"/>
    <text x="190" y="622" font-size="16" font-weight="700" fill="#09142f">Histórico atualizado</text>
    <text x="190" y="642" font-size="13" fill="#2792ae">Tudo registrado</text>
  </g>
  <g transform="translate(350 280)">
    <rect width="160" height="92" rx="20" fill="#ffffff" stroke="#33a50e" stroke-width="4"/>
    <circle cx="37" cy="46" r="22" fill="#33a50e"/>
    <path d="m26 46 8 8 15-18" fill="none" stroke="#fff" stroke-width="5"/>
    <text x="70" y="43" font-family="Arial" font-size="15" font-weight="700" fill="#09142f">Fluxo</text>
    <text x="70" y="66" font-family="Arial" font-size="15" fill="#09142f">concluído</text>
  </g>
</svg>
