<svg xmlns="http://www.w3.org/2000/svg" viewBox="0 0 520 760">
  <rect x="85" y="18" width="350" height="724" rx="58" fill="#09142f"/>
  <rect x="102" y="38" width="316" height="684" rx="43" fill="#ffffff"/>
  <path d="M102 81a43 43 0 0 1 43-43h230a43 43 0 0 1 43 43v92H102z" fill="#33a50e"/>
  <rect x="205" y="49" width="110" height="25" rx="13" fill="#09142f"/>
  <text x="136" y="123" font-family="Arial" font-size="25" font-weight="700" fill="#ffffff">GTchat</text>
  <text x="128" y="211" font-family="Arial" font-size="22" font-weight="700" fill="#09142f">Agente fiscal analisando</text>
  <circle cx="260" cy="330" r="76" fill="#eaf8e6" stroke="#33a50e" stroke-width="5"/>
  <rect x="218" y="300" width="84" height="62" rx="25" fill="#09142f"/>
  <circle cx="244" cy="330" r="8" fill="#33a50e"/><circle cx="276" cy="330" r="8" fill="#33a50e"/>
  <path d="M260 282v-18M250 264h20" stroke="#2792ae" stroke-width="7" stroke-linecap="round"/>
  <path d="M260 406v34M184 330h-34M336 330h34" stroke="#2792ae" stroke-width="5"/>
  <rect x="122" y="446" width="125" height="82" rx="15" fill="#eaf8e6"/>
  <rect x="273" y="446" width="125" height="82" rx="15" fill="#eaf8e6"/>
  <rect x="122" y="548" width="125" height="82" rx="15" fill="#eaf8e6"/>
  <rect x="273" y="548" width="125" height="82" rx="15" fill="#eaf8e6"/>
  <text x="184" y="481" text-anchor="middle" font-family="Arial" font-size="15" font-weight="700" fill="#09142f">Documento</text>
  <text x="335" y="481" text-anchor="middle" font-family="Arial" font-size="15" font-weight="700" fill="#09142f">Validação</text>
  <text x="184" y="583" text-anchor="middle" font-family="Arial" font-size="15" font-weight="700" fill="#09142f">Sistema</text>
  <text x="335" y="583" text-anchor="middle" font-family="Arial" font-size="15" font-weight="700" fill="#09142f">Regras</text>
  <rect x="128" y="659" width="264" height="18" rx="9" fill="#dbe6ea"/>
  <rect x="128" y="659" width="184" height="18" rx="9" fill="#33a50e"/>
  <g transform="translate(350 240)">
    <rect width="160" height="100" rx="20" fill="#ffffff" stroke="#2792ae" stroke-width="4"/>
    <path d="m36 28 20 8v15c0 17-10 29-20 34-10-5-20-17-20-34V36z" fill="#2792ae"/>
    <path d="m26 53 7 7 14-17" fill="none" stroke="#ffffff" stroke-width="5"/>
    <text x="68" y="46" font-family="Arial" font-size="14" font-weight="700" fill="#09142f">Processando</text>
    <text x="68" y="68" font-family="Arial" font-size="14" fill="#09142f">com segurança</text>
  </g>
</svg>
